<?xml version="1.0" encoding="UTF-8" standalone="no"?>
<!-- Generator: Adobe Illustrator 17.0.0, SVG Export Plug-In . SVG Version: 6.00 Build 0)  -->

<svg
   xmlns:dc="http://purl.org/dc/elements/1.1/"
   xmlns:cc="http://creativecommons.org/ns#"
   xmlns:rdf="http://www.w3.org/1999/02/22-rdf-syntax-ns#"
   xmlns:svg="http://www.w3.org/2000/svg"
   xmlns="http://www.w3.org/2000/svg"
   xmlns:sodipodi="http://sodipodi.sourceforge.net/DTD/sodipodi-0.dtd"
   xmlns:inkscape="http://www.inkscape.org/namespaces/inkscape"
   version="1.1"
   id="Capa_1"
   x="0px"
   y="0px"
   width="64px"
   height="64px"
   viewBox="0 0 64 64"
   style="enable-background:new 0 0 64 64;"
   xml:space="preserve"
   inkscape:version="0.48.4 r9939"
   sodipodi:docname="ensavoir.svg"><metadata
   id="metadata3017"><rdf:RDF><cc:Work
       rdf:about=""><dc:format>image/svg+xml</dc:format><dc:type
         rdf:resource="http://purl.org/dc/dcmitype/StillImage" /><dc:title></dc:title></cc:Work></rdf:RDF></metadata><defs
   id="defs3015" /><sodipodi:namedview
   pagecolor="#ffffff"
   bordercolor="#666666"
   borderopacity="1"
   objecttolerance="10"
   gridtolerance="10"
   guidetolerance="10"
   inkscape:pageopacity="0"
   inkscape:pageshadow="2"
   inkscape:window-width="1280"
   inkscape:window-height="748"
   id="namedview3013"
   showgrid="false"
   inkscape:zoom="7.3845192"
   inkscape:cx="31.993623"
   inkscape:cy="32.037689"
   inkscape:window-x="1592"
   inkscape:window-y="-8"
   inkscape:window-maximized="1"
   inkscape:current-layer="g3003" />
<g
   id="g3003">
	<path
   d="M45.411,16.445c-0.285-0.108-0.568-0.141-0.846-0.103c-0.279,0.042-0.529,0.142-0.754,0.302   c-0.223,0.161-0.414,0.366-0.571,0.615c-0.158,0.248-0.256,0.522-0.294,0.814c-0.03,0.461,0.088,0.882,0.354,1.265   c0.264,0.38,0.579,0.639,0.945,0.776c0.493,0.187,0.963,0.16,1.416-0.077c0.453-0.236,0.758-0.589,0.917-1.057   c0.077-0.205,0.107-0.385,0.093-0.536l-0.018,0.049c0.061-0.449-0.021-0.86-0.242-1.236C46.19,16.883,45.857,16.613,45.411,16.445z   "
   id="path3005"
   style="fill:#242424;fill-opacity:1" />
	<path
   d="M49.849,13.124c0.219-0.053,0.451-0.116,0.697-0.188c1.662-0.465,2.847-1.209,3.598-2.209   c0.155-0.168,0.317-0.393,0.492-0.768c0.985-2.107-0.034-3.883-0.034-3.883s-0.544-0.952-0.962-1.378   c-0.611-0.62-1.345-1.092-2.202-1.415c-0.144-0.055-0.277-0.101-0.398-0.137c-0.123-0.038-0.239-0.078-0.35-0.119   c-0.453-0.097-0.87-0.173-1.248-0.227c-0.381-0.054-0.748-0.067-1.099-0.048c-0.354,0.022-0.705,0.09-1.057,0.203   c-0.351,0.11-0.716,0.287-1.096,0.525c-0.142,0.091-0.273,0.232-0.392,0.423c-0.116,0.191-0.22,0.407-0.31,0.646   c-0.126,0.334-0.227,0.66-0.302,0.975c-0.073,0.318-0.112,0.528-0.115,0.636c-0.056,0.289-0.021,0.562,0.1,0.815   c0.121,0.255,0.304,0.446,0.546,0.572L45.694,7.54c0.205,0.133,0.374,0.201,0.507,0.206c0.136,0.006,0.247-0.03,0.339-0.104   c0.092-0.074,0.168-0.181,0.23-0.321c0.061-0.141,0.118-0.302,0.168-0.482c0.032-0.133,0.072-0.263,0.121-0.391   c0.053-0.143,0.13-0.251,0.23-0.322c0.379-0.382,0.833-0.569,1.355-0.562c0.525,0.007,1.023,0.126,1.497,0.36   c0.612,0.302,1.05,0.739,1.317,1.311c0.265,0.573,0.292,1.137,0.082,1.692c-0.102,0.269-0.264,0.494-0.485,0.676   c-0.223,0.179-0.484,0.333-0.789,0.464c-0.302,0.132-0.63,0.243-0.983,0.336c-0.353,0.095-0.707,0.183-1.066,0.267   c-0.461,0.116-0.902,0.235-1.319,0.36c-0.419,0.123-0.79,0.296-1.109,0.52c-0.213,0.082-0.385,0.193-0.52,0.333   c-0.135,0.141-0.244,0.294-0.325,0.462c-0.082,0.172-0.152,0.345-0.21,0.522c-0.058,0.178-0.109,0.348-0.154,0.513   c-0.014,0.086-0.028,0.151-0.046,0.199c-0.013,0.033-0.027,0.072-0.045,0.119c-0.12,0.318-0.163,0.574-0.128,0.769   c0.037,0.196,0.109,0.352,0.222,0.465c0.11,0.114,0.246,0.201,0.405,0.261c0.174,0.066,0.341,0.129,0.5,0.19l0.238,0.09   c0.349,0.132,0.63,0.193,0.844,0.184c0.212-0.011,0.38-0.074,0.506-0.19c0.127-0.117,0.227-0.278,0.306-0.486   c0.083-0.221,0.16-0.473,0.231-0.754l0.015,0.032l0.09-0.239c0.126-0.186,0.292-0.326,0.496-0.41   c0.203-0.088,0.57-0.204,1.097-0.349l-0.032,0.015C49.438,13.227,49.63,13.176,49.849,13.124z"
   id="path3007"
   style="fill:#242424;fill-opacity:1" />
	<path
   d="M27.855,9.208c-4.33,0-8.023,2.251-9.522,5.427c-0.377-0.173-0.794-0.276-1.237-0.276c-1.641,0-2.471,2.251-2.972,4.146   c-0.46,1.741-0.689,3.943,1.092,4.47c0,0,3.231-0.739,5.144-2.442c0.652-0.583,1.488-0.704,2.205-0.202   c1.992,1.4,6.626,3.692,15.232,3.24c0,0,0.478-2.876,0.299-5.794C37.798,12.938,33.511,9.208,27.855,9.208z"
   id="path3009"
   style="fill:#242424;fill-opacity:1" />
	<path
   d="M8.955,58.713c0.208,0.036,0.413,0.054,0.616,0.054c1.719,0,3.24-1.235,3.542-2.987c0.301-1.746,0.804-3.309,1.419-4.716   c-0.004,0.757,0.002,1.535,0.034,2.362c-0.024,0.135-0.024,0.208,0.005,0.209v5.356c0,0.993,0.805,1.8,1.8,1.8h19.649   c0.994,0,1.799-0.807,1.799-1.8v-5.363c0.203-4.585-0.292-8.113-1.102-10.822c4.513-1.412,11.277-6.07,11.07-16.092   c-0.041-1.986-1.646-3.578-3.672-3.523c-1.987,0.042-3.565,1.685-3.523,3.672c0.154,7.513-5.866,9.07-6.578,9.227   c-0.282,0.058-0.543,0.157-0.793,0.273c-1.407-1.503-2.588-1.973-2.588-1.973c3.932-1.568,6.771-5.282,7.079-9.697   c-0.72,0.035-1.436,0.057-2.13,0.057c-7.5,0-11.688-2.156-13.518-3.441c-0.387-0.27-0.824-0.209-1.223,0.145   c-2.041,1.817-5.353,2.592-5.494,2.625l-0.167,0.037c0.091,4.72,3.075,8.723,7.251,10.321c0,0-0.25,0.019-0.654,0.135   c-0.607-0.032-1.23,0.072-1.811,0.365c-0.472,0.239-11.595,5.996-13.948,19.619C5.683,56.513,6.997,58.375,8.955,58.713z"
   id="path3011"
   style="fill:#242424;fill-opacity:1" />
<path
   style="fill:#242424;stroke:none;fill-opacity:1"
   d="m 15.691489,60.515092 c -0.257121,-0.137897 -0.591331,-0.416452 -0.742688,-0.619013 -0.25941,-0.347167 -0.279079,-0.614361 -0.342904,-4.658199 -0.06613,-4.189874 -0.07313,-4.277932 -0.300147,-3.776426 -0.361746,0.799136 -1.003403,2.913317 -1.184652,3.903281 -0.324057,1.769961 -1.328525,2.895735 -2.880732,3.228623 C 8.6058586,58.943897 6.8888495,57.983928 6.2748832,56.376279 5.9634705,55.560857 6.0538463,54.462977 6.608516,52.323322 8.3097663,45.760703 12.434051,40.028057 18.329903,36.030907 c 1.276414,-0.865356 2.203771,-1.282239 3.031655,-1.362841 1.216595,-0.118448 1.28123,-0.239146 0.353806,-0.660698 -2.71045,-1.232009 -4.887294,-3.692504 -5.875748,-6.641378 -0.296595,-0.884836 -0.606297,-2.610626 -0.532979,-2.969985 0.02818,-0.138142 0.458833,-0.350284 1.195118,-0.588726 1.465471,-0.474585 2.939197,-1.207931 3.976481,-1.978749 0.447706,-0.332695 0.901981,-0.604901 1.009499,-0.604901 0.107518,0 0.720696,0.300219 1.362616,0.667154 3.419205,1.954489 7.351896,2.856553 12.489128,2.864705 l 2.301951,0.0037 -0.08838,0.635921 c -0.328785,2.365783 -1.483584,4.67883 -3.185956,6.38143 -0.912194,0.912316 -2.525611,2.047462 -3.316711,2.333527 -0.255813,0.0925 -0.465115,0.215646 -0.465115,0.273651 0,0.058 0.235706,0.225709 0.523789,0.372679 0.288084,0.146969 0.871755,0.585239 1.297046,0.973932 l 0.773258,0.706713 0.971213,-0.311128 c 2.062713,-0.66079 3.626796,-1.682858 4.641986,-3.033359 1.200949,-1.597616 1.635184,-2.89059 1.815828,-5.406788 0.172893,-2.408245 0.625943,-3.293068 2.078623,-4.05962 0.873676,-0.461024 2.23892,-0.421508 3.167272,0.09167 1.376795,0.761076 1.834118,1.704647 1.810301,3.735106 -0.03224,2.748745 -0.502399,4.878185 -1.580204,7.15707 -1.62903,3.444389 -4.691364,6.294097 -8.254226,7.681119 -0.52136,0.202965 -1.001515,0.416582 -1.06701,0.474705 -0.06729,0.05971 0.008,0.62522 0.173142,1.300152 0.667926,2.730175 0.71941,3.349256 0.786311,9.455002 l 0.0638,5.822992 -0.319368,0.473965 c -0.671125,0.995998 -0.09343,0.947483 -11.284974,0.947719 -9.496613,1.35e-4 -10.047632,-0.01296 -10.490571,-0.250509 l 0,0 z"
   id="path3795"
   inkscape:connector-curvature="0" /><path
   style="fill:#242424;fill-opacity:1"
   d="m 32.887385,23.438028 c -4.238917,-0.396828 -7.229827,-1.281398 -9.945289,-2.94135 -1.173987,-0.717654 -1.655507,-0.683922 -2.920725,0.204606 -1.083463,0.760886 -2.73372,1.574939 -3.970938,1.958818 -0.708383,0.219795 -0.826814,0.224339 -1.148009,0.04406 C 14.705446,22.593599 14.3997,22.291423 14.222988,22.032658 13.926206,21.598068 13.90663,21.46403 13.966394,20.2757 c 0.115421,-2.295007 1.123618,-4.755599 2.264524,-5.526765 0.377356,-0.255064 0.598174,-0.307445 1.083347,-0.256983 0.335161,0.03486 0.705769,0.103812 0.823573,0.153228 0.158571,0.06652 0.34363,-0.11986 0.712664,-0.717743 1.76535,-2.860094 5.209496,-4.6206299 9.039359,-4.6206299 4.01457,0 7.646085,2.0452309 9.189306,5.1753209 0.843351,1.710555 0.998978,2.681098 0.89643,5.590444 -0.04725,1.340643 -0.121212,2.666051 -0.164349,2.945351 l -0.07843,0.507819 -2.185734,-0.02167 c -1.202153,-0.01192 -2.399018,-0.04164 -2.659698,-0.06604 z"
   id="path3797"
   inkscape:connector-curvature="0" /><path
   style="fill:#242424;fill-opacity:1"
   d="m 45.371042,15.245455 c -0.973158,-0.37389 -1.073804,-0.629175 -0.717927,-1.821001 0.153606,-0.514423 0.371298,-1.066038 0.483761,-1.225811 0.367583,-0.522217 1.377623,-0.987902 3.18821,-1.469942 2.057915,-0.547888 2.927685,-0.9946764 3.198603,-1.6430749 0.418578,-1.0017962 0.144926,-2.0188176 -0.749119,-2.7840866 -1.382887,-1.1837001 -3.533716,-0.9539753 -3.869592,0.4133018 -0.124613,0.5072702 -0.447812,0.9669446 -0.679863,0.9669446 -0.108828,0 -0.396,-0.1770298 -0.63816,-0.3933996 -0.517942,-0.4627809 -0.554015,-0.9382904 -0.17048,-2.2472598 0.411558,-1.4046109 1.621874,-2.2389496 3.237881,-2.2320528 1.687082,0.0072 3.777793,0.8269715 4.808913,1.8855836 2.444222,2.5093896 1.803926,5.9621827 -1.394587,7.5203037 -0.532135,0.259224 -1.637839,0.659008 -2.457121,0.888409 -1.574068,0.440744 -2.008073,0.729928 -2.18715,1.457329 -0.25234,1.024999 -0.742414,1.188429 -2.053369,0.684756 z"
   id="path3799"
   inkscape:connector-curvature="0" /><path
   style="fill:#242424;fill-opacity:1"
   d="m 44.024313,19.870176 c -1.325148,-0.807952 -1.261013,-2.609053 0.116993,-3.285533 0.626406,-0.307511 1.183064,-0.197307 1.83055,0.362401 0.440089,0.380426 0.5045,0.516984 0.551275,1.168759 0.06269,0.873451 -0.119162,1.284441 -0.75914,1.715723 -0.563475,0.379725 -1.158585,0.392947 -1.739678,0.03865 l 0,0 z"
   id="path3801"
   inkscape:connector-curvature="0" /><path
   style="fill:#242424;fill-opacity:1"
   d="m 20.496598,60.641257 c -4.216742,-0.07196 -4.63603,-0.100132 -4.982126,-0.334734 -0.207845,-0.140888 -0.451019,-0.384641 -0.540386,-0.541674 -0.106886,-0.187814 -0.209265,-1.675663 -0.299192,-4.348066 -0.08464,-2.515395 -0.188067,-4.062553 -0.271568,-4.062553 -0.178436,0 -0.615802,1.241721 -1.160044,3.293471 -0.596739,2.249659 -1.010452,2.924683 -2.158265,3.521482 -0.794182,0.41293 -0.962421,0.451257 -1.7211946,0.392116 -1.3120608,-0.102267 -2.4833917,-0.926452 -2.971262,-2.090674 -0.388785,-0.927772 -0.1716147,-2.702809 0.6501539,-5.314021 1.8219693,-5.7894 5.2555927,-10.535628 10.3985147,-14.373655 1.737673,-1.296779 2.78926,-1.840554 3.935589,-2.03509 0.484121,-0.08216 0.93406,-0.199159 0.999863,-0.260005 0.119893,-0.11086 -0.001,-0.193739 -1.57045,-1.076566 -1.68485,-0.947745 -3.60435,-3.078315 -4.446322,-4.935244 -0.492442,-1.086056 -0.972092,-3.026684 -0.915201,-3.702826 0.04133,-0.491165 0.04417,-0.493201 1.463302,-1.049625 1.663669,-0.652302 2.473106,-1.061688 3.588588,-1.814986 0.446881,-0.301784 0.889621,-0.548892 0.983867,-0.549129 0.09424,-2.37e-4 0.902108,0.365885 1.795253,0.813605 2.009119,1.007141 3.066753,1.411408 4.804312,1.836386 1.776639,0.434536 4.049078,0.697558 7.007904,0.811124 2.78812,0.107014 2.594567,-0.05332 2.129741,1.764257 -0.444198,1.736918 -1.240112,3.243155 -2.447591,4.63198 -0.750949,0.863731 -2.335128,2.108639 -3.318391,2.607717 -0.476532,0.241875 -0.866422,0.488666 -0.866422,0.548425 0,0.05976 0.279824,0.301176 0.621831,0.536482 0.342006,0.235308 0.920994,0.693532 1.28664,1.018278 l 0.664811,0.590446 1.184746,-0.416562 c 2.810043,-0.988025 4.54421,-2.483912 5.552205,-4.789314 0.401398,-0.918045 0.518174,-1.453994 0.781906,-3.588588 0.131636,-1.065445 0.340851,-2.097665 0.501472,-2.47416 0.863016,-2.022908 3.81832,-2.487491 5.447064,-0.856296 0.750075,0.751205 0.930231,1.410944 0.916723,3.35708 -0.03008,4.333496 -1.602386,8.097295 -4.627643,11.077687 -1.419021,1.397977 -2.634324,2.22661 -4.682626,3.192767 -0.980306,0.462397 -1.553299,0.808764 -1.553299,0.938947 0,0.113452 0.155011,0.921266 0.344469,1.795142 0.434718,2.005139 0.570189,4.050201 0.659115,9.949904 l 0.07091,4.704739 -0.503395,0.52889 c -0.433646,0.455608 -0.606592,0.539648 -1.248196,0.606529 -1.191238,0.124179 -10.488575,0.18193 -15.505411,0.09631 l 0,0 z"
   id="path3803"
   inkscape:connector-curvature="0" /><rect
   style="fill:#004d6a;fill-opacity:1"
   id="rect3805"
   width="0.13541843"
   height="0.67709213"
   x="-18.687744"
   y="12.405578" /><rect
   style="fill:#004d6a;fill-opacity:1"
   id="rect3807"
   width="8.3959427"
   height="13.541843"
   x="-17.062723"
   y="14.030599" /><rect
   style="fill:#df691a;fill-opacity:1"
   id="rect3809"
   width="8.5313616"
   height="13.00017"
   x="-17.198141"
   y="29.332882" /><rect
   style="fill:#ffc129;fill-opacity:1"
   id="rect3811"
   width="8.3959427"
   height="13.406425"
   x="-17.198141"
   y="44.093491" /><path
   style="fill:#df691a;fill-opacity:0"
   d="m -17.082016,35.821736 0,-6.432376 4.197971,0 4.1979713,0 0,6.432376 0,6.432375 -4.1979713,0 -4.197971,0 0,-6.432375 z"
   id="path3813"
   inkscape:connector-curvature="0" /><path
   style="fill:#df691a;fill-opacity:0;opacity:1"
   d="m -17.082016,35.821736 0,-6.432376 4.197971,0 4.1979713,0 0,6.432376 0,6.432375 -4.1979713,0 -4.197971,0 0,-6.432375 z"
   id="path3817"
   inkscape:connector-curvature="0" /><path
   style="fill:#df691a;fill-opacity:0"
   d="m -17.082016,35.821736 0,-6.432376 4.197971,0 4.1979713,0 0,6.432376 0,6.432375 -4.1979713,0 -4.197971,0 0,-6.432375 z"
   id="path3819"
   inkscape:connector-curvature="0" /><path
   style="fill:#df691a;fill-opacity:0"
   d="m -17.082016,35.821736 0,-6.432376 4.197971,0 4.1979713,0 0,6.432376 0,6.432375 -4.1979713,0 -4.197971,0 0,-6.432375 z"
   id="path3821"
   inkscape:connector-curvature="0" /><path
   style="fill:#df691a;fill-opacity:0"
   d="m -17.082016,35.821736 0,-6.432376 4.197971,0 4.1979713,0 0,6.432376 0,6.432375 -4.1979713,0 -4.197971,0 0,-6.432375 z"
   id="path3823"
   inkscape:connector-curvature="0" /><path
   style="fill:#df691a;fill-opacity:0"
   d="m -17.082016,50.785473 0,-6.635504 4.130262,0 4.1302619,0 0,6.635504 0,6.635503 -4.1302619,0 -4.130262,0 0,-6.635503 z"
   id="path3825"
   inkscape:connector-curvature="0" /><path
   style="fill:#df691a;fill-opacity:0"
   d="m -17.082016,35.821736 0,-6.432376 4.197971,0 4.1979713,0 0,6.432376 0,6.432375 -4.1979713,0 -4.197971,0 0,-6.432375 z"
   id="path3827"
   inkscape:connector-curvature="0" /><path
   style="fill:#df691a;fill-opacity:0"
   d="m -17.082016,35.821736 0,-6.432376 4.197971,0 4.1979713,0 0,6.432376 0,6.432375 -4.1979713,0 -4.197971,0 0,-6.432375 z"
   id="path3829"
   inkscape:connector-curvature="0" /><path
   style="fill:#df691a;fill-opacity:0"
   d="m -16.946598,20.79029 0,-6.703212 4.130262,0 4.1302623,0 0,6.703212 0,6.703212 -4.1302623,0 -4.130262,0 0,-6.703212 z"
   id="path3831"
   inkscape:connector-curvature="0" /><path
   style="fill:#242424;fill-opacity:1"
   d="m 15.924943,60.477463 c -1.10335,-0.393718 -1.135298,-0.518615 -1.256445,-4.911888 -0.05176,-1.876991 -0.139677,-3.613733 -0.195373,-3.859425 l -0.101265,-0.446713 -0.230375,0.524645 c -0.126706,0.288554 -0.444067,1.294035 -0.705247,2.234404 -0.669641,2.411024 -0.838789,2.834767 -1.363335,3.415376 -1.687791,1.868183 -4.6786584,1.340617 -5.6556318,-0.99761 -0.7979537,-1.909772 1.1015354,-7.935915 3.7995048,-12.053957 1.840512,-2.809264 4.210246,-5.326946 6.967671,-7.402679 1.790459,-1.347821 2.883266,-1.959763 3.878692,-2.171962 1.186538,-0.25294 1.261608,-0.276618 1.261608,-0.397908 0,-0.0662 -0.515667,-0.409802 -1.145927,-0.763571 -1.356423,-0.761371 -2.820689,-2.055918 -3.667103,-3.24206 -1.157473,-1.622054 -2.09331,-4.133469 -2.09331,-5.617616 l 0,-0.507085 1.184911,-0.443574 c 1.45717,-0.545494 2.842144,-1.229475 3.825571,-1.889289 0.409641,-0.274842 0.814389,-0.54032 0.89944,-0.589951 0.08505,-0.04963 0.938185,0.305006 1.895858,0.788083 3.775616,1.90453 7.208029,2.640055 12.321443,2.640338 l 2.048861,1.13e-4 -0.195546,1.03563 c -0.398285,2.109341 -1.353852,4.016926 -2.771161,5.532035 -0.925616,0.989487 -2.284326,2.033174 -3.331566,2.559129 -0.391021,0.196382 -0.710947,0.408872 -0.710947,0.4722 0,0.06333 0.258988,0.285333 0.575529,0.493343 0.31654,0.20801 0.898641,0.652801 1.293555,0.988422 l 0.718027,0.610223 0.771575,-0.238144 c 2.738245,-0.845148 4.751314,-2.453118 5.776677,-4.614207 0.531957,-1.121171 0.689315,-1.766129 0.948575,-3.887902 0.106573,-0.872184 0.266497,-1.828533 0.355387,-2.125221 0.831221,-2.77437 5.154979,-2.922802 6.29563,-0.216125 0.294922,0.699827 0.295847,3.439339 0.0017,5.078191 -0.570607,3.179318 -2.075524,6.062328 -4.3499,8.333218 -1.322293,1.320266 -2.702969,2.262992 -4.750278,3.243491 -0.848468,0.406347 -1.542666,0.793071 -1.542666,0.859387 0,0.06631 0.154149,0.875448 0.342554,1.798071 0.447337,2.190617 0.572105,4.047412 0.663236,9.870314 l 0.07524,4.807354 -0.438951,0.508751 c -0.355215,0.4117 -0.578096,0.534404 -1.16838,0.643237 -0.440479,0.08121 -4.490564,0.132132 -10.224091,0.128544 -7.586083,-0.0048 -9.596999,-0.04246 -10.003764,-0.187612 z"
   id="path3833"
   inkscape:connector-curvature="0" /></g>
</svg>